<?xml version="1.0" encoding="UTF-8"?>
<!DOCTYPE svg PUBLIC "-//W3C//DTD SVG 1.1//EN" "http://www.w3.org/Graphics/SVG/1.1/DTD/svg11.dtd">
<!-- Creator: CorelDRAW X7 -->
<svg xmlns="http://www.w3.org/2000/svg" xml:space="preserve" width="9.72441in" height="1.23602in" version="1.1" style="shape-rendering:geometricPrecision; text-rendering:geometricPrecision; image-rendering:optimizeQuality; fill-rule:evenodd; clip-rule:evenodd"
viewBox="0 0 9724 1236"
 xmlns:xlink="http://www.w3.org/1999/xlink">
 <defs>
  <style type="text/css">
   <![CDATA[
    .fil3 {fill:none}
    .fil4 {fill:#3D3D3D}
    .fil0 {fill:#3D3D3D;fill-rule:nonzero}
    .fil2 {fill:#FF5A1A}
    .fil5 {fill:url(#id1)}
    .fil1 {fill:url(#id2)}
   ]]>
  </style>
     <clipPath id="id0">
      <path d="M581 1236c-80,0 -154,-15 -225,-45 -43,-19 -84,-42 -121,-70l212 -122c42,16 86,25 134,25 52,0 100,-10 145,-29 44,-19 84,-46 118,-82 34,-34 60,-74 79,-119 10,-27 18,-54 23,-83l212 -123c2,18 3,37 3,55l0 478c0,30 -10,56 -31,77 -21,22 -46,32 -77,32 -30,0 -55,-10 -74,-31 -19,-21 -29,-47 -29,-78l-1 -17c-51,42 -108,75 -171,98 -63,23 -128,34 -197,34zm-435 -262c-42,-47 -76,-101 -101,-161 -30,-71 -45,-146 -45,-227 0,-79 15,-155 45,-226 30,-71 72,-134 125,-188 54,-55 116,-97 186,-127 71,-30 145,-45 225,-45 79,0 153,15 223,44 70,30 132,71 186,125 53,54 94,116 124,186 7,16 13,33 18,49l-189 110c-4,-25 -11,-48 -20,-71 -19,-45 -45,-85 -79,-119 -34,-34 -74,-61 -119,-80 -45,-20 -93,-29 -144,-29 -51,0 -100,9 -144,29 -45,19 -84,46 -118,80 -34,34 -60,74 -79,119 -18,46 -28,93 -28,143 0,51 10,99 28,144 19,45 45,85 79,119 5,6 10,11 16,16l-189 109z"/>
     </clipPath>
  <linearGradient id="id1" gradientUnits="userSpaceOnUse" x1="669.617" y1="799.031" x2="712.479" y2="922.798">
   <stop offset="0" style="stop-opacity:1; stop-color:#FF5A1A"/>
   <stop offset="1" style="stop-opacity:1; stop-color:#3D3D3D"/>
  </linearGradient>
  <linearGradient id="id2" gradientUnits="userSpaceOnUse" xlink:href="#id1" x1="472.905" y1="432.267" x2="688.582" y2="803.747">
  </linearGradient>
 </defs>
 <g id="Layer_x0020_1">
  <metadata id="CorelCorpID_0Corel-Layer"/>
  <g id="_721732424">
   <g>
    <path class="fil0" d="M1827 273c9,-17 20,-26 35,-26 15,0 27,9 35,27l294 663c7,14 11,24 11,31 0,7 -3,13 -8,18 -4,5 -10,7 -18,7 -6,0 -11,-2 -16,-7 -5,-4 -9,-8 -11,-12l-2 -6 -84 -191 -400 0 -83 190c-7,17 -18,26 -31,26 -8,0 -14,-2 -19,-7 -5,-5 -7,-11 -7,-19l10 -31 294 -663zm35 52l-175 401 354 0 -175 -401 -4 0z"/>
    <path id="1" class="fil0" d="M2844 897l7 0 0 -608c0,-18 8,-26 26,-26 17,0 25,8 25,26l0 678c0,17 -8,26 -25,26 -16,0 -30,-9 -42,-26l-452 -606 -5 0 0 606c0,17 -9,26 -26,26 -17,0 -26,-9 -26,-26l0 -678c0,-18 9,-26 26,-26 15,0 28,9 40,27l452 607z"/>
    <path id="2" class="fil0" d="M3180 289l0 678c0,17 -9,26 -26,26 -17,0 -25,-9 -25,-26l0 -678c0,-18 8,-26 25,-26 17,0 26,8 26,26z"/>
    <path id="3" class="fil0" d="M3499 247c14,0 26,11 36,31l254 535 6 0 254 -535c10,-20 22,-31 36,-31 17,0 28,11 32,31l118 648c3,21 4,34 4,41 0,8 -2,14 -7,19 -5,5 -11,7 -19,7 -9,0 -16,-3 -20,-10 -4,-7 -8,-19 -11,-36l-107 -602 -6 0 -246 519c-6,11 -10,18 -14,21 -4,3 -10,5 -17,5 -8,0 -13,-2 -17,-5 -4,-3 -9,-10 -14,-21l-247 -519 -5 0 -113 601c-3,17 -6,29 -10,36 -4,7 -10,11 -18,11 -7,0 -13,-2 -17,-7 -4,-5 -6,-11 -6,-19l5 -41 118 -648c4,-20 14,-31 31,-31z"/>
    <path id="4" class="fil0" d="M4604 273c8,-17 20,-26 35,-26 15,0 27,9 35,27l294 663c7,14 10,24 10,31 0,7 -2,13 -7,18 -5,5 -11,7 -18,7 -6,0 -12,-2 -17,-7 -5,-4 -8,-8 -10,-12l-3 -6 -83 -191 -401 0 -83 190c-7,17 -17,26 -31,26 -7,0 -14,-2 -18,-7 -5,-5 -8,-11 -8,-19l11 -31 294 -663zm34 52l-175 401 354 0 -175 -401 -4 0z"/>
    <path id="5" class="fil0" d="M5211 319l-247 0c-17,0 -26,-8 -26,-25 0,-17 9,-26 26,-26l545 0c17,0 26,9 26,26 0,17 -9,25 -26,25l-247 0 0 648c0,17 -8,26 -25,26 -17,0 -26,-9 -26,-26l0 -648z"/>
    <path id="6" class="fil0" d="M5710 289l0 678c0,17 -9,26 -26,26 -17,0 -26,-9 -26,-26l0 -678c0,-18 9,-26 26,-26 17,0 26,8 26,26z"/>
    <path id="7" class="fil0" d="M5984 328c56,-54 129,-81 219,-81 90,0 163,27 219,81 57,53 85,122 85,207l0 186c0,85 -28,154 -85,207 -56,54 -129,80 -219,80 -90,0 -163,-26 -219,-80 -56,-53 -84,-122 -84,-207l0 -186c0,-85 28,-154 84,-207zm471 393l0 -186c0,-69 -23,-126 -70,-170 -46,-44 -107,-66 -182,-66 -74,0 -135,22 -182,66 -46,44 -70,101 -70,170l0 186c0,69 24,125 70,170 47,44 108,66 182,66 75,0 136,-22 182,-66 47,-45 70,-101 70,-170z"/>
    <path id="8" class="fil0" d="M7215 897l6 0 0 -608c0,-18 9,-26 26,-26 17,0 26,8 26,26l0 678c0,17 -9,26 -26,26 -16,0 -29,-9 -41,-26l-453 -606 -5 0 0 606c0,17 -8,26 -25,26 -18,0 -26,-9 -26,-26l0 -678c0,-18 8,-26 25,-26 15,0 29,9 40,27l453 607z"/>
    <path class="fil0" d="M7545 864l340 0c18,0 34,7 47,20 14,14 20,29 20,47 0,18 -6,34 -20,47 -13,13 -29,20 -47,20l-412 0c-20,0 -37,-7 -51,-20 -14,-14 -21,-31 -21,-52l0 -582c0,-21 7,-38 21,-52 14,-13 31,-20 51,-20 21,0 38,7 52,20 14,14 20,31 20,52l0 520z"/>
    <path id="1" class="fil0" d="M8179 344l0 587c0,22 -6,39 -19,52 -13,14 -30,20 -53,20 -23,0 -40,-6 -53,-20 -13,-13 -19,-30 -19,-52l0 -587c0,-21 7,-38 20,-52 14,-13 31,-20 52,-20 21,0 38,7 51,20 14,14 21,31 21,52z"/>
    <path id="2" class="fil0" d="M8823 740l5 0 0 -396c0,-21 6,-39 19,-52 13,-13 31,-20 53,-20 23,0 41,7 53,20 13,13 19,31 19,52l0 587c0,21 -7,38 -20,52 -14,13 -31,20 -52,20 -30,0 -54,-12 -72,-36l-335 -432 -5 0 0 396c0,22 -6,39 -19,52 -13,14 -30,20 -53,20 -23,0 -40,-6 -53,-20 -13,-13 -19,-30 -19,-52l0 -587c0,-21 7,-38 21,-52 13,-13 31,-20 51,-20 30,0 54,12 72,36l335 432z"/>
    <path id="3" class="fil0" d="M9647 411l-366 0 0 165 273 0c18,0 33,6 45,17 11,12 17,27 17,45 0,17 -6,32 -17,44 -12,12 -27,17 -45,17l-273 0 0 165 376 0c18,0 34,7 47,20 14,14 20,29 20,47 0,18 -6,34 -20,47 -13,13 -29,20 -47,20l-448 0c-20,0 -37,-7 -51,-20 -14,-14 -21,-31 -21,-52l0 -577c0,-20 7,-38 21,-51 14,-14 31,-21 51,-21l438 0c18,0 34,7 47,20 13,14 20,29 20,47 0,18 -7,33 -20,47 -13,13 -29,20 -47,20z"/>
   </g>
   <g>
    <path class="fil1" d="M581 1236c-80,0 -154,-15 -225,-45 -43,-19 -84,-42 -121,-70l212 -122c42,16 86,25 134,25 52,0 100,-10 145,-29 44,-19 84,-46 118,-82 34,-34 60,-74 79,-119 10,-27 18,-54 23,-83l212 -123c2,18 3,37 3,55l0 478c0,30 -10,56 -31,77 -21,22 -46,32 -77,32 -30,0 -55,-10 -74,-31 -19,-21 -29,-47 -29,-78l-1 -17c-51,42 -108,75 -171,98 -63,23 -128,34 -197,34zm-435 -262c-42,-47 -76,-101 -101,-161 -30,-71 -45,-146 -45,-227 0,-79 15,-155 45,-226 30,-71 72,-134 125,-188 54,-55 116,-97 186,-127 71,-30 145,-45 225,-45 79,0 153,15 223,44 70,30 132,71 186,125 53,54 94,116 124,186 7,16 13,33 18,49l-189 110c-4,-25 -11,-48 -20,-71 -19,-45 -45,-85 -79,-119 -34,-34 -74,-61 -119,-80 -45,-20 -93,-29 -144,-29 -51,0 -100,9 -144,29 -45,19 -84,46 -118,80 -34,34 -60,74 -79,119 -18,46 -28,93 -28,143 0,51 10,99 28,144 19,45 45,85 79,119 5,6 10,11 16,16l-189 109z"/>
    <g style="clip-path:url(#id0)">
     <g>
      <g>
       <polygon id="1" class="fil2" points="105,1198 145,1212 185,1226 137,1253 90,1281 98,1239 "/>
       <polygon class="fil2" points="180,1328 220,1341 260,1355 212,1383 164,1410 172,1369 "/>
       <polygon class="fil2" points="255,1457 295,1471 334,1485 287,1512 239,1540 247,1498 "/>
       <polygon class="fil2" points="819,786 858,800 898,814 851,841 803,869 811,828 "/>
       <polygon class="fil2" points="894,916 933,930 973,943 925,971 878,998 886,957 "/>
       <polygon class="fil2" points="968,1045 1008,1059 1048,1073 1000,1100 952,1128 960,1087 "/>
       <polygon class="fil2" points="376,1195 384,1154 392,1113 344,1140 296,1168 336,1182 "/>
       <polygon class="fil2" points="451,1325 459,1284 467,1243 419,1270 371,1298 411,1311 "/>
       <polygon class="fil2" points="525,1454 533,1413 541,1372 493,1399 446,1427 485,1440 "/>
       <polygon class="fil2" points="988,842 996,801 1004,760 956,787 908,815 948,828 "/>
       <polygon class="fil2" points="1077,878 1085,836 1093,795 1045,823 997,850 1037,864 "/>
       <polygon class="fil2" points="1063,972 1071,931 1079,889 1031,917 983,944 1023,958 "/>
       <polygon class="fil2" points="1137,1101 1145,1060 1153,1018 1105,1046 1058,1073 1097,1087 "/>
       <polygon class="fil2" points="478,1136 438,1123 399,1109 446,1081 494,1054 486,1095 "/>
       <polygon class="fil2" points="553,1266 513,1252 473,1239 521,1211 569,1184 561,1225 "/>
       <polygon class="fil2" points="627,1395 588,1381 548,1368 596,1340 643,1313 635,1354 "/>
       <polygon class="fil2" points="1090,783 1050,769 1011,756 1058,728 1106,701 1098,742 "/>
       <polygon class="fil2" points="1179,819 1139,805 1099,791 1147,764 1195,736 1187,777 "/>
       <polygon class="fil2" points="1165,913 1125,899 1085,885 1133,858 1181,830 1173,872 "/>
       <polygon class="fil2" points="1239,1042 1200,1028 1160,1014 1208,987 1255,959 1247,1001 "/>
       <polygon class="fil2" points="1150,1009 1110,996 1070,982 1118,954 1166,927 1158,968 "/>
       <polygon class="fil2" points="172,1314 180,1273 188,1231 141,1259 93,1286 133,1300 "/>
       <polygon class="fil2" points="247,1444 255,1402 263,1361 215,1389 168,1416 207,1430 "/>
       <polygon class="fil2" points="322,1573 330,1531 338,1490 290,1518 242,1545 282,1559 "/>
       <polygon class="fil2" points="784,961 792,919 800,878 752,906 705,933 745,947 "/>
       <polygon class="fil2" points="859,1090 867,1049 875,1008 827,1035 780,1063 819,1077 "/>
       <polygon class="fil2" points="934,1219 942,1178 950,1137 902,1164 854,1192 894,1206 "/>
       <polygon class="fil2" points="682,1019 643,1006 603,992 651,964 698,937 690,978 "/>
       <polygon class="fil2" points="757,1149 718,1135 678,1122 725,1094 773,1067 765,1108 "/>
       <polygon class="fil2" points="832,1278 792,1264 752,1251 800,1223 848,1196 840,1237 "/>
       <polygon class="fil2" points="1294,666 1255,652 1215,639 1263,611 1310,584 1302,625 "/>
       <polygon class="fil2" points="1383,702 1344,688 1304,674 1351,647 1399,619 1391,660 "/>
       <polygon class="fil2" points="296,1175 336,1189 376,1202 328,1230 281,1257 289,1216 "/>
       <polygon class="fil2" points="371,1305 411,1318 451,1332 403,1360 355,1387 363,1346 "/>
       <polygon class="fil2" points="446,1434 486,1447 525,1461 478,1489 430,1516 438,1475 "/>
       <polygon class="fil2" points="908,822 948,835 988,849 940,877 893,904 900,863 "/>
       <polygon class="fil2" points="983,951 1023,965 1063,979 1015,1006 967,1034 975,993 "/>
       <polygon class="fil2" points="1058,1080 1098,1094 1137,1108 1090,1135 1042,1163 1050,1122 "/>
       <polygon class="fil2" points="398,1116 438,1130 477,1144 430,1171 382,1199 390,1158 "/>
       <polygon class="fil2" points="473,1246 513,1260 552,1274 505,1301 457,1329 465,1287 "/>
       <polygon class="fil2" points="547,1375 587,1389 627,1403 579,1430 531,1458 539,1416 "/>
       <polygon class="fil2" points="1010,763 1050,777 1089,790 1042,818 994,845 1002,804 "/>
       <polygon class="fil2" points="1099,798 1139,812 1178,826 1131,853 1083,881 1091,840 "/>
       <polygon class="fil2" points="1085,893 1125,906 1164,920 1117,948 1069,975 1077,934 "/>
       <polygon class="fil2" points="1159,1022 1199,1035 1239,1049 1191,1077 1143,1104 1151,1063 "/>
       <polygon class="fil2" points="500,1057 492,1099 484,1140 532,1112 579,1085 540,1071 "/>
       <polygon class="fil2" points="575,1187 567,1228 559,1270 607,1242 654,1215 614,1201 "/>
       <polygon class="fil2" points="649,1316 641,1357 633,1399 681,1371 729,1344 689,1330 "/>
       <polygon class="fil2" points="1112,704 1104,745 1096,787 1144,759 1191,732 1152,718 "/>
       <polygon class="fil2" points="1201,740 1193,781 1185,822 1233,795 1280,767 1240,753 "/>
       <polygon class="fil2" points="1187,834 1179,875 1171,916 1219,889 1266,861 1226,848 "/>
       <polygon class="fil2" points="1261,963 1253,1004 1245,1045 1293,1018 1341,990 1301,977 "/>
       <polygon class="fil2" points="186,1219 194,1178 202,1137 155,1164 107,1192 147,1205 "/>
       <polygon class="fil2" points="261,1349 269,1307 277,1266 229,1294 182,1321 221,1335 "/>
       <polygon class="fil2" points="336,1478 344,1437 352,1396 304,1423 256,1451 296,1464 "/>
       <polygon class="fil2" points="900,807 908,766 915,725 868,752 820,780 860,794 "/>
       <polygon class="fil2" points="974,937 982,896 990,854 943,882 895,909 935,923 "/>
       <polygon class="fil2" points="1049,1066 1057,1025 1065,984 1017,1011 970,1039 1009,1053 "/>
       <polygon class="fil2" points="288,1160 296,1119 304,1078 256,1105 209,1133 248,1147 "/>
       <polygon class="fil2" points="363,1290 371,1249 379,1207 331,1235 283,1262 323,1276 "/>
       <polygon class="fil2" points="438,1419 446,1378 454,1337 406,1364 358,1392 398,1406 "/>
       <polygon class="fil2" points="1001,749 1009,707 1017,666 970,694 922,721 962,735 "/>
       <polygon class="fil2" points="1270,852 1278,811 1286,770 1238,797 1190,825 1230,839 "/>
       <polygon class="fil2" points="390,1102 398,1060 406,1019 358,1047 310,1074 350,1088 "/>
       <polygon class="fil2" points="465,1231 473,1190 481,1149 433,1176 385,1204 425,1217 "/>
       <polygon class="fil2" points="539,1361 547,1319 555,1278 508,1306 460,1333 500,1347 "/>
       <polygon class="fil2" points="1103,690 1111,649 1119,607 1071,635 1024,662 1063,676 "/>
       <polygon class="fil2" points="1372,794 1379,752 1387,711 1340,738 1292,766 1332,780 "/>
       <polygon class="fil2" points="492,1043 500,1002 508,960 460,988 412,1015 452,1029 "/>
       <polygon class="fil2" points="566,1172 574,1131 582,1090 535,1117 487,1145 527,1159 "/>
       <polygon class="fil2" points="641,1302 649,1261 657,1219 609,1247 562,1274 601,1288 "/>
       <polygon class="fil2" points="1205,631 1213,590 1221,548 1173,576 1126,603 1165,617 "/>
       <polygon class="fil2" points="1473,735 1481,693 1489,652 1442,680 1394,707 1434,721 "/>
       <polygon class="fil2" points="593,984 601,943 609,902 562,929 514,957 554,970 "/>
       <polygon class="fil2" points="668,1114 676,1072 684,1031 636,1059 589,1086 628,1100 "/>
       <polygon class="fil2" points="743,1243 751,1202 759,1161 711,1188 664,1216 703,1229 "/>
       <polygon class="fil2" points="1307,572 1315,531 1323,490 1275,517 1227,545 1267,558 "/>
       <polygon class="fil2" points="1575,676 1583,635 1591,593 1543,621 1496,648 1535,662 "/>
       <polygon class="fil2" points="695,925 703,884 711,843 663,870 616,898 655,912 "/>
       <polygon class="fil2" points="770,1055 778,1014 786,972 738,1000 691,1027 730,1041 "/>
       <polygon class="fil2" points="845,1184 853,1143 861,1102 813,1129 765,1157 805,1171 "/>
       <polygon class="fil2" points="797,867 805,825 813,784 765,812 717,839 757,853 "/>
       <polygon class="fil2" points="872,996 879,955 887,914 840,941 792,969 832,982 "/>
       <polygon class="fil2" points="946,1126 954,1084 962,1043 915,1071 867,1098 907,1112 "/>
       <polygon class="fil2" points="1409,513 1416,472 1424,431 1377,458 1329,486 1369,500 "/>
       <polygon class="fil2" points="1677,617 1685,576 1693,535 1645,562 1597,590 1637,603 "/>
       <polygon class="fil2" points="195,1234 234,1247 274,1261 226,1289 179,1316 187,1275 "/>
       <polygon class="fil2" points="270,1363 309,1377 349,1391 301,1418 254,1446 262,1405 "/>
       <polygon class="fil2" points="344,1492 384,1506 423,1520 376,1547 328,1575 336,1534 "/>
       <polygon class="fil2" points="807,880 846,894 886,908 838,935 791,963 799,922 "/>
       <polygon class="fil2" points="882,1010 921,1024 961,1038 913,1065 866,1093 874,1051 "/>
       <polygon class="fil2" points="956,1139 996,1153 1035,1167 988,1194 940,1222 948,1180 "/>
       <polygon class="fil2" points="602,999 594,1040 586,1081 633,1054 681,1026 641,1012 "/>
       <polygon class="fil2" points="677,1128 669,1170 661,1211 708,1183 756,1156 716,1142 "/>
       <polygon class="fil2" points="751,1257 743,1299 735,1340 783,1312 830,1285 791,1271 "/>
       <polygon class="fil2" points="705,939 697,980 689,1022 736,994 784,967 744,953 "/>
       <polygon class="fil2" points="780,1069 772,1110 764,1151 811,1124 859,1096 819,1083 "/>
       <polygon class="fil2" points="854,1198 846,1239 838,1280 886,1253 933,1225 894,1212 "/>
       <polygon class="fil2" points="1214,645 1206,687 1198,728 1245,700 1293,673 1253,659 "/>
       <polygon class="fil2" points="1303,681 1295,722 1287,763 1334,736 1382,708 1342,695 "/>
       <polygon class="fil2" points="207,1140 246,1153 286,1167 238,1195 191,1222 199,1181 "/>
       <polygon class="fil2" points="281,1269 321,1283 361,1297 313,1324 266,1352 274,1311 "/>
       <polygon class="fil2" points="356,1399 396,1413 436,1426 388,1454 340,1481 348,1440 "/>
       <polygon class="fil2" points="920,728 960,742 999,755 952,783 904,810 912,769 "/>
       <polygon class="fil2" points="995,857 1034,871 1074,885 1027,912 979,940 987,899 "/>
       <polygon class="fil2" points="1070,987 1109,1001 1149,1014 1101,1042 1054,1069 1062,1028 "/>
       <polygon class="fil2" points="309,1080 349,1094 389,1108 341,1135 294,1163 301,1122 "/>
       <polygon class="fil2" points="384,1210 424,1224 464,1237 416,1265 368,1292 376,1251 "/>
       <polygon class="fil2" points="459,1339 499,1353 538,1367 491,1394 443,1422 451,1381 "/>
       <polygon class="fil2" points="1023,669 1062,682 1102,696 1054,724 1007,751 1015,710 "/>
       <polygon class="fil2" points="1292,773 1331,787 1371,801 1323,828 1276,856 1284,815 "/>
       <polygon class="fil2" points="412,1021 452,1035 492,1049 444,1076 396,1104 404,1062 "/>
       <polygon class="fil2" points="487,1151 527,1164 566,1178 519,1206 471,1233 479,1192 "/>
       <polygon class="fil2" points="562,1280 601,1294 641,1308 593,1335 546,1363 554,1321 "/>
       <polygon class="fil2" points="1125,609 1165,623 1205,637 1157,664 1110,692 1118,651 "/>
       <polygon class="fil2" points="1394,714 1434,728 1474,741 1426,769 1379,797 1386,755 "/>
       <polygon class="fil2" points="513,963 553,976 593,990 545,1018 498,1045 505,1004 "/>
       <polygon class="fil2" points="588,1092 628,1106 668,1120 620,1147 572,1175 580,1133 "/>
       <polygon class="fil2" points="663,1222 703,1235 742,1249 695,1277 647,1304 655,1263 "/>
       <polygon class="fil2" points="1227,551 1266,565 1306,578 1258,606 1211,633 1219,592 "/>
       <polygon class="fil2" points="1496,655 1535,669 1575,683 1527,711 1480,738 1488,697 "/>
       <polygon class="fil2" points="616,903 656,917 696,931 648,958 600,986 608,945 "/>
       <polygon class="fil2" points="691,1033 731,1047 770,1060 723,1088 675,1115 683,1074 "/>
       <polygon class="fil2" points="766,1162 805,1176 845,1190 797,1217 750,1245 758,1204 "/>
       <polygon class="fil2" points="1329,491 1369,505 1409,519 1361,547 1314,574 1322,533 "/>
       <polygon class="fil2" points="1598,596 1638,610 1678,624 1630,651 1583,679 1590,637 "/>
       <polygon class="fil2" points="717,845 757,859 797,872 749,900 702,927 709,886 "/>
       <polygon class="fil2" points="792,974 832,988 872,1002 824,1029 776,1057 784,1016 "/>
       <polygon class="fil2" points="867,1104 907,1118 946,1131 899,1159 851,1186 859,1145 "/>
       <polygon class="fil2" points="1431,433 1470,447 1510,461 1462,488 1415,516 1423,474 "/>
       <polygon class="fil2" points="273,1255 281,1213 289,1172 241,1200 194,1227 233,1241 "/>
       <polygon class="fil2" points="348,1384 356,1343 364,1302 316,1329 269,1357 308,1371 "/>
       <polygon class="fil2" points="422,1513 430,1472 438,1431 391,1458 343,1486 383,1500 "/>
       <polygon class="fil2" points="885,901 893,860 901,819 853,846 806,874 845,888 "/>
       <polygon class="fil2" points="960,1031 968,990 976,949 928,976 881,1004 920,1017 "/>
       <polygon class="fil2" points="1034,1160 1042,1119 1050,1078 1003,1105 955,1133 995,1146 "/>
       <polygon class="fil2" points="581,1077 541,1063 501,1050 549,1022 597,995 589,1036 "/>
       <polygon class="fil2" points="656,1207 616,1193 576,1179 624,1152 671,1124 664,1166 "/>
       <polygon class="fil2" points="730,1336 690,1322 651,1308 698,1281 746,1253 738,1295 "/>
       <polygon class="fil2" points="1193,724 1153,710 1113,696 1161,669 1209,641 1201,683 "/>
       <polygon class="fil2" points="1282,759 1242,746 1202,732 1250,704 1298,677 1290,718 "/>
       <polygon class="fil2" points="970,1216 1010,1229 1049,1243 1002,1271 954,1298 962,1257 "/>
       <polygon class="fil2" points="1151,1179 1112,1166 1072,1152 1120,1124 1167,1097 1159,1138 "/>
       <polygon class="fil2" points="1051,1236 1059,1195 1067,1154 1019,1181 971,1209 1011,1223 "/>
       <polygon class="fil2" points="1071,1157 1111,1171 1151,1185 1103,1212 1055,1240 1063,1198 "/>
      </g>
     </g>
    </g>
    <path class="fil3" d="M581 1236c-80,0 -154,-15 -225,-45 -43,-19 -84,-42 -121,-70l212 -122c42,16 86,25 134,25 52,0 100,-10 145,-29 44,-19 84,-46 118,-82 34,-34 60,-74 79,-119 10,-27 18,-54 23,-83l212 -123c2,18 3,37 3,55l0 478c0,30 -10,56 -31,77 -21,22 -46,32 -77,32 -30,0 -55,-10 -74,-31 -19,-21 -29,-47 -29,-78l-1 -17c-51,42 -108,75 -171,98 -63,23 -128,34 -197,34zm-435 -262c-42,-47 -76,-101 -101,-161 -30,-71 -45,-146 -45,-227 0,-79 15,-155 45,-226 30,-71 72,-134 125,-188 54,-55 116,-97 186,-127 71,-30 145,-45 225,-45 79,0 153,15 223,44 70,30 132,71 186,125 53,54 94,116 124,186 7,16 13,33 18,49l-189 110c-4,-25 -11,-48 -20,-71 -19,-45 -45,-85 -79,-119 -34,-34 -74,-61 -119,-80 -45,-20 -93,-29 -144,-29 -51,0 -100,9 -144,29 -45,19 -84,46 -118,80 -34,34 -60,74 -79,119 -18,46 -28,93 -28,143 0,51 10,99 28,144 19,45 45,85 79,119 5,6 10,11 16,16l-189 109z"/>
    <rect class="fil4" transform="matrix(0.397871 -0.229711 0.184379 0.319353 30.8349 1073.72)" width="3087" height="317" rx="158" ry="158"/>
    <path class="fil5" d="M930 712l-477 275c41,17 70,22 118,22 52,0 100,-9 145,-29 44,-19 84,-46 118,-81 34,-35 60,-74 79,-119 10,-27 12,-39 17,-68z"/>
   </g>
  </g>
 </g>
</svg>
