<?xml version="1.0" encoding="UTF-8"?>
<!DOCTYPE svg PUBLIC "-//W3C//DTD SVG 1.1//EN" "http://www.w3.org/Graphics/SVG/1.1/DTD/svg11.dtd">
<!-- Creator: CorelDRAW X7 -->
<svg xmlns="http://www.w3.org/2000/svg" xml:space="preserve" width="9.05512in" height="1.5748in" version="1.1" style="shape-rendering:geometricPrecision; text-rendering:geometricPrecision; image-rendering:optimizeQuality; fill-rule:evenodd; clip-rule:evenodd"
viewBox="0 0 9055 1575"
 xmlns:xlink="http://www.w3.org/1999/xlink">
 <defs>
  <style type="text/css">
   <![CDATA[
    .fil3 {fill:none}
    .fil4 {fill:white}
    .fil0 {fill:white;fill-rule:nonzero}
    .fil2 {fill:#FF5A1A}
    .fil1 {fill:url(#id1)}
    .fil5 {fill:url(#id2)}
   ]]>
  </style>
     <clipPath id="id0">
      <path d="M974 1405c-80,0 -154,-14 -225,-45 -43,-18 -84,-41 -121,-69l212 -123c41,17 86,25 134,25 52,0 100,-10 145,-29 44,-19 84,-46 118,-81 34,-35 60,-74 79,-119 10,-27 18,-55 22,-84l213 -122c2,18 3,36 3,55l0 477c0,31 -10,56 -31,78 -21,21 -46,32 -77,32 -30,0 -55,-11 -74,-32 -20,-20 -29,-47 -29,-78l-1 -16c-51,42 -108,74 -171,97 -63,23 -129,34 -197,34zm-436 -261c-41,-48 -75,-101 -100,-161 -30,-71 -45,-147 -45,-227 0,-80 15,-155 45,-227 30,-71 72,-134 125,-188 54,-54 116,-97 186,-127 71,-30 145,-45 225,-45 79,0 153,15 223,45 70,29 132,71 186,125 53,53 94,115 124,185 7,17 13,33 18,50l-189 109c-4,-24 -11,-48 -20,-70 -19,-46 -45,-85 -79,-120 -34,-34 -74,-61 -119,-80 -45,-19 -93,-29 -144,-29 -52,0 -100,10 -145,29 -44,19 -83,46 -117,80 -34,35 -60,74 -79,120 -19,45 -28,92 -28,143 0,51 9,98 28,144 19,45 45,84 79,119 5,5 10,10 16,15l-190 110z"/>
     </clipPath>
  <linearGradient id="id1" gradientUnits="userSpaceOnUse" x1="865.795" y1="601.661" x2="1081.47" y2="973.142">
   <stop offset="0" style="stop-opacity:1; stop-color:#FF5A1A"/>
   <stop offset="1" style="stop-opacity:1; stop-color:#3D3D3D"/>
  </linearGradient>
  <linearGradient id="id2" gradientUnits="userSpaceOnUse" xlink:href="#id1" x1="1062.51" y1="968.425" x2="1105.37" y2="1092.19">
  </linearGradient>
 </defs>
 <g id="Layer_x0020_1">
  <metadata id="CorelCorpID_0Corel-Layer"/>
  <g id="_519424688">
   <g>
    <path class="fil0" d="M2210 498c7,-14 16,-21 29,-21 12,0 21,7 28,21l240 542c6,11 9,19 9,25 0,6 -2,11 -6,15 -4,4 -9,6 -15,6 -5,0 -9,-2 -13,-6 -5,-3 -7,-7 -9,-10l-2 -5 -68 -156 -327 0 -68 156c-6,14 -14,21 -26,21 -6,0 -11,-2 -15,-6 -4,-4 -6,-9 -6,-15l9 -26 240 -541zm28 42l-143 327 289 0 -143 -327 -3 0z"/>
    <path id="1" class="fil0" d="M3041 1007l5 0 0 -497c0,-14 7,-21 21,-21 14,0 21,7 21,21l0 555c0,14 -7,21 -21,21 -13,0 -24,-7 -33,-21l-370 -496 -4 0 0 496c0,14 -7,21 -21,21 -14,0 -21,-7 -21,-21l0 -555c0,-14 7,-21 20,-21 13,0 24,7 33,22l370 496z"/>
    <path id="2" class="fil0" d="M3315 510l0 555c0,14 -7,21 -21,21 -14,0 -21,-7 -21,-21l0 -555c0,-14 7,-21 21,-21 14,0 21,7 21,21z"/>
    <path id="3" class="fil0" d="M3576 477c11,0 21,8 29,25l208 437 5 0 207 -437c8,-17 18,-25 30,-25 14,0 22,8 26,25l96 529c2,17 4,28 4,34 0,6 -2,11 -6,15 -4,4 -9,6 -16,6 -7,0 -13,-3 -16,-9 -4,-5 -7,-15 -9,-29l-88 -492 -4 0 -202 425c-4,8 -8,14 -11,16 -3,3 -8,5 -14,5 -6,0 -11,-2 -14,-5 -3,-2 -7,-8 -11,-16l-202 -425 -4 0 -92 491c-3,14 -5,24 -8,30 -3,6 -8,9 -15,9 -6,0 -11,-2 -14,-6 -4,-4 -5,-9 -5,-15l4 -34 96 -529c4,-17 12,-25 26,-25z"/>
    <path id="4" class="fil0" d="M4479 498c6,-14 16,-21 28,-21 12,0 22,7 29,21l240 542c5,11 8,19 8,25 0,6 -2,11 -5,15 -4,4 -9,6 -15,6 -5,0 -10,-2 -14,-6 -4,-3 -7,-7 -9,-10l-2 -5 -68 -156 -327 0 -68 156c-6,14 -14,21 -25,21 -6,0 -11,-2 -15,-6 -4,-4 -6,-9 -6,-15l8 -26 241 -541zm28 42l-143 327 289 0 -143 -327 -3 0z"/>
    <path id="5" class="fil0" d="M4975 535l-202 0c-14,0 -21,-7 -21,-21 0,-14 7,-21 21,-21l445 0c14,0 21,7 21,21 0,14 -7,21 -21,21l-201 0 0 530c0,14 -7,21 -21,21 -14,0 -21,-7 -21,-21l0 -530z"/>
    <path id="6" class="fil0" d="M5382 510l0 555c0,14 -7,21 -21,21 -14,0 -21,-7 -21,-21l0 -555c0,-14 7,-21 21,-21 14,0 21,7 21,21z"/>
    <path id="7" class="fil0" d="M5606 542c46,-44 106,-65 179,-65 74,0 133,21 179,65 46,44 69,100 69,170l0 151c0,69 -23,126 -69,170 -46,43 -105,65 -179,65 -73,0 -133,-22 -179,-65 -46,-44 -69,-101 -69,-170l0 -151c0,-70 23,-126 69,-170zm385 321l0 -151c0,-57 -19,-103 -57,-139 -38,-36 -88,-54 -149,-54 -61,0 -110,18 -148,54 -38,36 -57,82 -57,139l0 151c0,57 19,103 57,139 38,36 87,54 148,54 61,0 111,-18 149,-54 38,-36 57,-82 57,-139z"/>
    <path id="8" class="fil0" d="M6612 1007l5 0 0 -497c0,-14 7,-21 21,-21 14,0 21,7 21,21l0 555c0,14 -7,21 -21,21 -13,0 -24,-7 -33,-21l-370 -496 -4 0 0 496c0,14 -7,21 -21,21 -14,0 -21,-7 -21,-21l0 -555c0,-14 7,-21 20,-21 13,0 24,7 33,22l370 496z"/>
    <path class="fil0" d="M6882 980l278 0c14,0 27,6 38,17 11,11 16,24 16,38 0,15 -5,28 -16,38 -11,11 -24,17 -38,17l-337 0c-17,0 -31,-6 -42,-17 -11,-11 -17,-25 -17,-42l0 -476c0,-16 6,-30 17,-42 11,-11 25,-17 42,-17 17,0 31,6 42,17 11,12 17,26 17,42l0 425z"/>
    <path id="1" class="fil0" d="M7400 555l0 480c0,18 -6,32 -16,43 -10,11 -25,16 -43,16 -19,0 -33,-5 -44,-16 -10,-11 -15,-25 -15,-43l0 -480c0,-16 5,-30 17,-42 11,-11 25,-17 42,-17 17,0 31,6 42,17 11,12 17,26 17,42z"/>
    <path id="2" class="fil0" d="M7926 879l4 0 0 -324c0,-17 5,-31 15,-42 11,-11 25,-17 44,-17 18,0 33,6 43,17 11,11 16,25 16,42l0 480c0,17 -6,31 -17,42 -11,11 -25,17 -42,17 -25,0 -44,-10 -59,-29l-274 -354 -4 0 0 324c0,18 -5,32 -15,43 -11,11 -25,16 -44,16 -18,0 -33,-5 -43,-16 -11,-11 -16,-25 -16,-43l0 -480c0,-16 6,-30 17,-42 11,-11 26,-17 42,-17 25,0 45,10 59,30l274 353z"/>
    <path id="3" class="fil0" d="M8599 610l-299 0 0 135 223 0c15,0 27,5 37,14 9,10 14,22 14,36 0,15 -5,27 -14,36 -10,10 -22,15 -37,15l-223 0 0 134 308 0c14,0 27,6 38,17 11,11 16,24 16,38 0,15 -5,28 -16,38 -11,11 -24,17 -38,17l-367 0c-16,0 -30,-6 -42,-17 -11,-11 -17,-25 -17,-42l0 -471c0,-17 6,-31 17,-42 12,-12 26,-17 42,-17l358 0c15,0 27,5 38,16 11,11 17,24 17,38 0,15 -6,28 -17,39 -11,11 -23,16 -38,16z"/>
   </g>
   <g>
    <path class="fil1" d="M974 1405c-80,0 -154,-14 -225,-45 -43,-18 -84,-41 -121,-69l212 -123c41,17 86,25 134,25 52,0 100,-10 145,-29 44,-19 84,-46 118,-81 34,-35 60,-74 79,-119 10,-27 18,-55 22,-84l213 -122c2,18 3,36 3,55l0 477c0,31 -10,56 -31,78 -21,21 -46,32 -77,32 -30,0 -55,-11 -74,-32 -20,-20 -29,-47 -29,-78l-1 -16c-51,42 -108,74 -171,97 -63,23 -129,34 -197,34zm-436 -261c-41,-48 -75,-101 -100,-161 -30,-71 -45,-147 -45,-227 0,-80 15,-155 45,-227 30,-71 72,-134 125,-188 54,-54 116,-97 186,-127 71,-30 145,-45 225,-45 79,0 153,15 223,45 70,29 132,71 186,125 53,53 94,115 124,185 7,17 13,33 18,50l-189 109c-4,-24 -11,-48 -20,-70 -19,-46 -45,-85 -79,-120 -34,-34 -74,-61 -119,-80 -45,-19 -93,-29 -144,-29 -52,0 -100,10 -145,29 -44,19 -83,46 -117,80 -34,35 -60,74 -79,120 -19,45 -28,92 -28,143 0,51 9,98 28,144 19,45 45,84 79,119 5,5 10,10 16,15l-190 110z"/>
    <g style="clip-path:url(#id0)">
     <g>
      <g>
       <polygon id="1" class="fil2" points="498,1368 538,1381 578,1395 530,1423 482,1450 490,1409 "/>
       <polygon class="fil2" points="573,1497 613,1511 653,1525 605,1552 557,1580 565,1538 "/>
       <polygon class="fil2" points="648,1627 688,1640 727,1654 680,1682 632,1709 640,1668 "/>
       <polygon class="fil2" points="1212,956 1251,969 1291,983 1243,1011 1196,1038 1204,997 "/>
       <polygon class="fil2" points="1286,1085 1326,1099 1366,1113 1318,1140 1271,1168 1278,1127 "/>
       <polygon class="fil2" points="1361,1215 1401,1229 1441,1242 1393,1270 1345,1297 1353,1256 "/>
       <polygon class="fil2" points="769,1365 777,1324 785,1282 737,1310 689,1337 729,1351 "/>
       <polygon class="fil2" points="844,1495 852,1453 860,1412 812,1440 764,1467 804,1481 "/>
       <polygon class="fil2" points="918,1624 926,1582 934,1541 886,1569 839,1596 878,1610 "/>
       <polygon class="fil2" points="1381,1011 1389,970 1397,929 1349,956 1301,984 1341,998 "/>
       <polygon class="fil2" points="1470,1047 1478,1006 1486,964 1438,992 1390,1019 1430,1033 "/>
       <polygon class="fil2" points="1456,1141 1464,1100 1471,1059 1424,1086 1376,1114 1416,1127 "/>
       <polygon class="fil2" points="1530,1270 1538,1229 1546,1188 1498,1215 1451,1243 1490,1256 "/>
       <polygon class="fil2" points="871,1306 831,1292 791,1278 839,1251 887,1223 879,1265 "/>
       <polygon class="fil2" points="946,1436 906,1422 866,1408 914,1381 962,1353 954,1394 "/>
       <polygon class="fil2" points="1020,1565 981,1551 941,1537 988,1510 1036,1482 1028,1523 "/>
       <polygon class="fil2" points="1483,953 1443,939 1403,925 1451,897 1499,870 1491,911 "/>
       <polygon class="fil2" points="1572,988 1532,974 1492,961 1540,933 1588,906 1580,947 "/>
       <polygon class="fil2" points="1558,1082 1518,1068 1478,1055 1526,1027 1574,1000 1566,1041 "/>
       <polygon class="fil2" points="1632,1211 1592,1197 1553,1184 1600,1156 1648,1129 1640,1170 "/>
       <polygon class="fil2" points="1543,1179 1503,1165 1463,1151 1511,1124 1558,1096 1551,1137 "/>
       <polygon class="fil2" points="565,1483 573,1442 581,1401 533,1428 486,1456 525,1470 "/>
       <polygon class="fil2" points="640,1613 648,1572 656,1530 608,1558 561,1586 600,1599 "/>
       <polygon class="fil2" points="715,1742 723,1701 730,1660 683,1687 635,1715 675,1728 "/>
       <polygon class="fil2" points="1177,1130 1185,1089 1193,1047 1145,1075 1098,1102 1137,1116 "/>
       <polygon class="fil2" points="1252,1260 1260,1218 1268,1177 1220,1205 1173,1232 1212,1246 "/>
       <polygon class="fil2" points="1327,1389 1334,1347 1342,1306 1295,1334 1247,1361 1287,1375 "/>
       <polygon class="fil2" points="1075,1189 1036,1175 996,1161 1043,1134 1091,1106 1083,1148 "/>
       <polygon class="fil2" points="1150,1319 1110,1305 1071,1291 1118,1264 1166,1236 1158,1277 "/>
       <polygon class="fil2" points="1225,1448 1185,1434 1145,1420 1193,1393 1241,1365 1233,1406 "/>
       <polygon class="fil2" points="1687,836 1648,822 1608,808 1655,780 1703,753 1695,794 "/>
       <polygon class="fil2" points="1776,871 1736,857 1697,844 1744,816 1792,788 1784,830 "/>
       <polygon class="fil2" points="689,1344 729,1358 769,1372 721,1399 673,1427 681,1386 "/>
       <polygon class="fil2" points="764,1474 804,1488 844,1502 796,1529 748,1557 756,1515 "/>
       <polygon class="fil2" points="839,1603 878,1617 918,1631 870,1658 823,1686 831,1644 "/>
       <polygon class="fil2" points="1301,991 1341,1005 1381,1018 1333,1046 1285,1074 1293,1032 "/>
       <polygon class="fil2" points="1376,1121 1416,1134 1456,1148 1408,1176 1360,1203 1368,1162 "/>
       <polygon class="fil2" points="1451,1250 1490,1263 1530,1277 1482,1305 1435,1332 1443,1291 "/>
       <polygon class="fil2" points="791,1286 831,1299 870,1313 823,1341 775,1368 783,1327 "/>
       <polygon class="fil2" points="866,1415 906,1429 945,1443 898,1470 850,1498 858,1457 "/>
       <polygon class="fil2" points="940,1544 980,1558 1020,1572 972,1599 924,1627 932,1586 "/>
       <polygon class="fil2" points="1403,932 1443,946 1482,960 1435,987 1387,1015 1395,974 "/>
       <polygon class="fil2" points="1492,968 1532,982 1571,995 1524,1023 1476,1050 1484,1009 "/>
       <polygon class="fil2" points="1478,1062 1517,1076 1557,1090 1510,1117 1462,1145 1470,1103 "/>
       <polygon class="fil2" points="1552,1191 1592,1205 1632,1219 1584,1246 1536,1274 1544,1232 "/>
       <polygon class="fil2" points="893,1227 885,1268 877,1309 925,1282 972,1254 932,1241 "/>
       <polygon class="fil2" points="968,1357 960,1398 952,1439 999,1412 1047,1384 1007,1370 "/>
       <polygon class="fil2" points="1042,1486 1034,1527 1026,1568 1074,1541 1122,1513 1082,1499 "/>
       <polygon class="fil2" points="1505,874 1497,915 1489,956 1537,929 1584,901 1544,887 "/>
       <polygon class="fil2" points="1594,909 1586,950 1578,992 1625,964 1673,937 1633,923 "/>
       <polygon class="fil2" points="1580,1003 1572,1045 1564,1086 1611,1058 1659,1031 1619,1017 "/>
       <polygon class="fil2" points="1654,1132 1646,1174 1638,1215 1686,1187 1734,1160 1694,1146 "/>
       <polygon class="fil2" points="579,1389 587,1347 595,1306 547,1333 500,1361 539,1375 "/>
       <polygon class="fil2" points="654,1518 662,1477 670,1436 622,1463 575,1491 614,1504 "/>
       <polygon class="fil2" points="729,1648 737,1606 745,1565 697,1593 649,1620 689,1634 "/>
       <polygon class="fil2" points="1292,977 1300,935 1308,894 1261,922 1213,949 1253,963 "/>
       <polygon class="fil2" points="1367,1106 1375,1065 1383,1024 1335,1051 1288,1079 1328,1092 "/>
       <polygon class="fil2" points="1442,1236 1450,1194 1458,1153 1410,1181 1363,1208 1402,1222 "/>
       <polygon class="fil2" points="681,1330 689,1288 697,1247 649,1275 602,1302 641,1316 "/>
       <polygon class="fil2" points="756,1459 764,1418 772,1377 724,1404 676,1432 716,1446 "/>
       <polygon class="fil2" points="831,1589 838,1548 846,1506 799,1534 751,1561 791,1575 "/>
       <polygon class="fil2" points="1394,918 1402,877 1410,835 1362,863 1315,890 1355,904 "/>
       <polygon class="fil2" points="1663,1022 1671,980 1679,939 1631,967 1583,994 1623,1008 "/>
       <polygon class="fil2" points="783,1271 791,1230 799,1188 751,1216 703,1243 743,1257 "/>
       <polygon class="fil2" points="858,1401 865,1359 873,1318 826,1345 778,1373 818,1387 "/>
       <polygon class="fil2" points="932,1530 940,1489 948,1447 901,1475 853,1503 893,1516 "/>
       <polygon class="fil2" points="1496,859 1504,818 1512,777 1464,804 1417,832 1456,845 "/>
       <polygon class="fil2" points="1764,963 1772,922 1780,880 1733,908 1685,935 1725,949 "/>
       <polygon class="fil2" points="885,1212 892,1171 900,1130 853,1157 805,1185 845,1198 "/>
       <polygon class="fil2" points="959,1342 967,1300 975,1259 928,1287 880,1314 920,1328 "/>
       <polygon class="fil2" points="1034,1471 1042,1430 1050,1389 1002,1416 955,1444 994,1458 "/>
       <polygon class="fil2" points="1598,800 1606,759 1614,718 1566,745 1518,773 1558,787 "/>
       <polygon class="fil2" points="1866,904 1874,863 1882,822 1834,849 1787,877 1826,890 "/>
       <polygon class="fil2" points="986,1153 994,1112 1002,1071 955,1098 907,1126 947,1140 "/>
       <polygon class="fil2" points="1061,1283 1069,1242 1077,1200 1029,1228 982,1255 1021,1269 "/>
       <polygon class="fil2" points="1136,1413 1144,1371 1152,1330 1104,1357 1056,1385 1096,1399 "/>
       <polygon class="fil2" points="1700,742 1708,700 1716,659 1668,687 1620,714 1660,728 "/>
       <polygon class="fil2" points="1968,845 1976,804 1984,763 1936,790 1889,818 1928,832 "/>
       <polygon class="fil2" points="1088,1095 1096,1053 1104,1012 1056,1040 1009,1067 1048,1081 "/>
       <polygon class="fil2" points="1163,1224 1171,1183 1179,1142 1131,1169 1083,1197 1123,1210 "/>
       <polygon class="fil2" points="1238,1354 1246,1312 1254,1271 1206,1299 1158,1326 1198,1340 "/>
       <polygon class="fil2" points="1190,1036 1198,995 1206,954 1158,981 1110,1009 1150,1022 "/>
       <polygon class="fil2" points="1264,1166 1272,1124 1280,1083 1233,1111 1185,1138 1225,1152 "/>
       <polygon class="fil2" points="1339,1295 1347,1254 1355,1213 1307,1240 1260,1268 1300,1281 "/>
       <polygon class="fil2" points="1801,683 1809,642 1817,600 1770,628 1722,655 1762,669 "/>
       <polygon class="fil2" points="2070,787 2078,745 2086,704 2038,732 1990,759 2030,773 "/>
       <polygon class="fil2" points="588,1403 627,1417 667,1431 619,1458 572,1486 580,1444 "/>
       <polygon class="fil2" points="662,1533 702,1547 742,1560 694,1588 647,1615 655,1574 "/>
       <polygon class="fil2" points="737,1662 777,1676 816,1689 769,1717 721,1744 729,1703 "/>
       <polygon class="fil2" points="1200,1050 1239,1063 1279,1077 1231,1105 1184,1132 1192,1091 "/>
       <polygon class="fil2" points="1274,1179 1314,1193 1354,1207 1306,1234 1259,1262 1267,1221 "/>
       <polygon class="fil2" points="1349,1308 1389,1322 1428,1336 1381,1363 1333,1391 1341,1350 "/>
       <polygon class="fil2" points="995,1168 987,1209 979,1251 1026,1223 1074,1196 1034,1182 "/>
       <polygon class="fil2" points="1069,1298 1061,1339 1054,1380 1101,1353 1149,1325 1109,1312 "/>
       <polygon class="fil2" points="1144,1427 1136,1468 1128,1509 1176,1482 1223,1454 1184,1441 "/>
       <polygon class="fil2" points="1098,1109 1090,1150 1082,1191 1129,1164 1177,1136 1137,1122 "/>
       <polygon class="fil2" points="1172,1238 1164,1280 1157,1321 1204,1293 1252,1266 1212,1252 "/>
       <polygon class="fil2" points="1247,1367 1239,1409 1231,1450 1279,1422 1326,1395 1287,1381 "/>
       <polygon class="fil2" points="1607,815 1599,856 1591,897 1638,870 1686,842 1646,829 "/>
       <polygon class="fil2" points="1695,850 1688,892 1680,933 1727,905 1775,878 1735,864 "/>
       <polygon class="fil2" points="600,1309 639,1323 679,1337 631,1364 584,1392 592,1350 "/>
       <polygon class="fil2" points="674,1439 714,1452 754,1466 706,1494 658,1521 666,1480 "/>
       <polygon class="fil2" points="749,1568 789,1582 829,1596 781,1623 733,1651 741,1609 "/>
       <polygon class="fil2" points="1313,897 1353,911 1392,925 1345,952 1297,980 1305,939 "/>
       <polygon class="fil2" points="1388,1027 1427,1041 1467,1054 1419,1082 1372,1109 1380,1068 "/>
       <polygon class="fil2" points="1462,1156 1502,1170 1542,1184 1494,1211 1447,1239 1454,1198 "/>
       <polygon class="fil2" points="702,1250 742,1264 782,1277 734,1305 686,1332 694,1291 "/>
       <polygon class="fil2" points="777,1379 817,1393 857,1407 809,1434 761,1462 769,1421 "/>
       <polygon class="fil2" points="852,1509 892,1523 931,1536 884,1564 836,1591 844,1550 "/>
       <polygon class="fil2" points="1416,838 1455,852 1495,865 1447,893 1400,921 1408,879 "/>
       <polygon class="fil2" points="1685,943 1724,956 1764,970 1716,998 1669,1025 1677,984 "/>
       <polygon class="fil2" points="805,1190 845,1204 884,1218 837,1246 789,1273 797,1232 "/>
       <polygon class="fil2" points="880,1320 920,1334 959,1348 912,1375 864,1403 872,1361 "/>
       <polygon class="fil2" points="955,1450 994,1463 1034,1477 986,1505 939,1532 947,1491 "/>
       <polygon class="fil2" points="1518,779 1558,792 1598,806 1550,834 1502,861 1510,820 "/>
       <polygon class="fil2" points="1787,883 1827,897 1867,911 1819,938 1771,966 1779,925 "/>
       <polygon class="fil2" points="906,1132 946,1146 986,1160 938,1187 890,1215 898,1173 "/>
       <polygon class="fil2" points="981,1262 1021,1275 1061,1289 1013,1317 965,1344 973,1303 "/>
       <polygon class="fil2" points="1056,1391 1096,1405 1135,1419 1088,1446 1040,1474 1048,1432 "/>
       <polygon class="fil2" points="1620,720 1659,734 1699,748 1651,775 1604,803 1612,761 "/>
       <polygon class="fil2" points="1889,825 1928,839 1968,852 1920,880 1873,907 1881,866 "/>
       <polygon class="fil2" points="1009,1073 1049,1086 1088,1100 1041,1128 993,1155 1001,1114 "/>
       <polygon class="fil2" points="1084,1202 1124,1216 1163,1230 1116,1257 1068,1285 1076,1243 "/>
       <polygon class="fil2" points="1159,1332 1198,1346 1238,1359 1190,1387 1143,1414 1151,1373 "/>
       <polygon class="fil2" points="1722,661 1762,675 1802,688 1754,716 1706,743 1714,702 "/>
       <polygon class="fil2" points="1991,766 2031,779 2071,793 2023,821 1975,848 1983,807 "/>
       <polygon class="fil2" points="1110,1014 1150,1028 1190,1042 1142,1069 1094,1097 1102,1056 "/>
       <polygon class="fil2" points="1185,1144 1225,1158 1265,1171 1217,1199 1169,1226 1177,1185 "/>
       <polygon class="fil2" points="1260,1273 1300,1287 1339,1301 1292,1328 1244,1356 1252,1315 "/>
       <polygon class="fil2" points="1824,602 1863,616 1903,630 1855,657 1808,685 1816,644 "/>
       <polygon class="fil2" points="666,1424 674,1383 682,1342 634,1369 587,1397 626,1410 "/>
       <polygon class="fil2" points="741,1554 749,1513 757,1471 709,1499 661,1526 701,1540 "/>
       <polygon class="fil2" points="815,1683 823,1642 831,1600 784,1628 736,1655 776,1669 "/>
       <polygon class="fil2" points="1278,1071 1286,1030 1294,988 1246,1016 1199,1043 1238,1057 "/>
       <polygon class="fil2" points="1353,1201 1361,1159 1369,1118 1321,1145 1273,1173 1313,1187 "/>
       <polygon class="fil2" points="1427,1330 1435,1288 1443,1247 1396,1275 1348,1302 1388,1316 "/>
       <polygon class="fil2" points="974,1247 934,1233 894,1219 942,1192 989,1164 982,1205 "/>
       <polygon class="fil2" points="1048,1376 1009,1363 969,1349 1017,1321 1064,1294 1056,1335 "/>
       <polygon class="fil2" points="1123,1505 1083,1492 1044,1478 1091,1450 1139,1423 1131,1464 "/>
       <polygon class="fil2" points="1586,893 1546,879 1506,866 1554,838 1601,811 1594,852 "/>
       <polygon class="fil2" points="1675,929 1635,915 1595,901 1643,874 1690,846 1682,887 "/>
       <polygon class="fil2" points="1363,1385 1403,1399 1442,1412 1395,1440 1347,1467 1355,1426 "/>
       <polygon class="fil2" points="1544,1349 1505,1335 1465,1321 1513,1294 1560,1266 1552,1308 "/>
       <polygon class="fil2" points="1444,1406 1452,1365 1460,1323 1412,1351 1364,1378 1404,1392 "/>
       <polygon class="fil2" points="1464,1326 1504,1340 1544,1354 1496,1381 1448,1409 1456,1368 "/>
      </g>
     </g>
    </g>
    <path class="fil3" d="M974 1405c-80,0 -154,-14 -225,-45 -43,-18 -84,-41 -121,-69l212 -123c41,17 86,25 134,25 52,0 100,-10 145,-29 44,-19 84,-46 118,-81 34,-35 60,-74 79,-119 10,-27 18,-55 22,-84l213 -122c2,18 3,36 3,55l0 477c0,31 -10,56 -31,78 -21,21 -46,32 -77,32 -30,0 -55,-11 -74,-32 -20,-20 -29,-47 -29,-78l-1 -16c-51,42 -108,74 -171,97 -63,23 -129,34 -197,34zm-436 -261c-41,-48 -75,-101 -100,-161 -30,-71 -45,-147 -45,-227 0,-80 15,-155 45,-227 30,-71 72,-134 125,-188 54,-54 116,-97 186,-127 71,-30 145,-45 225,-45 79,0 153,15 223,45 70,29 132,71 186,125 53,53 94,115 124,185 7,17 13,33 18,50l-189 109c-4,-24 -11,-48 -20,-70 -19,-46 -45,-85 -79,-120 -34,-34 -74,-61 -119,-80 -45,-19 -93,-29 -144,-29 -52,0 -100,10 -145,29 -44,19 -83,46 -117,80 -34,35 -60,74 -79,120 -19,45 -28,92 -28,143 0,51 9,98 28,144 19,45 45,84 79,119 5,5 10,10 16,15l-190 110z"/>
    <rect class="fil4" transform="matrix(0.397871 -0.229711 0.184379 0.319353 423.725 1243.12)" width="3087" height="317" rx="158" ry="158"/>
    <path class="fil5" d="M1322 882l-477 275c42,16 71,22 118,22 52,0 101,-10 145,-29 45,-20 85,-47 119,-82 34,-34 60,-74 78,-119 11,-27 13,-39 17,-67z"/>
   </g>
  </g>
 </g>
</svg>
