<?xml version="1.0" encoding="UTF-8"?>
<!DOCTYPE svg PUBLIC "-//W3C//DTD SVG 1.1//EN" "http://www.w3.org/Graphics/SVG/1.1/DTD/svg11.dtd">
<!-- Creator: CorelDRAW X7 -->
<svg xmlns="http://www.w3.org/2000/svg" xml:space="preserve" width="10.2362in" height="10.2362in" version="1.1" style="shape-rendering:geometricPrecision; text-rendering:geometricPrecision; image-rendering:optimizeQuality; fill-rule:evenodd; clip-rule:evenodd"
viewBox="0 0 10236 10236"
 xmlns:xlink="http://www.w3.org/1999/xlink">
 <defs>
  <style type="text/css">
   <![CDATA[
    .fil2 {fill:none}
    .fil3 {fill:#3D3D3D}
    .fil1 {fill:#FF5A1A}
    .fil4 {fill:url(#id1)}
    .fil0 {fill:url(#id2)}
   ]]>
  </style>
    <clipPath id="id0">
     <path d="M4963 6543c-183,0 -355,-34 -517,-104 -101,-43 -194,-96 -280,-161l488 -282c97,38 200,58 309,58 120,0 232,-23 334,-67 103,-45 195,-107 274,-188 78,-79 138,-171 181,-275 24,-62 42,-126 52,-191l490 -283c4,42 7,84 8,127l0 1101c0,69 -24,129 -73,178 -47,49 -106,74 -176,74 -70,0 -128,-25 -172,-73 -44,-47 -66,-108 -66,-179l-3 -39c-118,97 -249,173 -394,226 -145,51 -296,78 -455,78zm-1003 -604c-97,-109 -174,-233 -232,-371 -70,-164 -104,-338 -104,-523 0,-184 34,-357 104,-522 69,-164 165,-308 289,-434 124,-126 266,-223 429,-292 162,-70 334,-104 517,-104 182,0 354,34 516,102 161,68 304,165 427,288 122,124 218,267 287,429 15,37 30,75 42,114l-436 251c-11,-55 -26,-109 -47,-162 -43,-104 -103,-195 -181,-275 -79,-79 -171,-141 -275,-185 -104,-44 -215,-67 -333,-67 -118,0 -229,23 -332,67 -103,44 -194,106 -271,185 -78,80 -138,171 -181,275 -44,105 -66,214 -66,330 0,117 22,227 66,332 43,104 103,195 181,275 12,12 24,24 36,35l-436 252z"/>
    </clipPath>
  <linearGradient id="id1" gradientUnits="userSpaceOnUse" x1="5168.08" y1="5535.44" x2="5266.9" y2="5820.78">
   <stop offset="0" style="stop-opacity:1; stop-color:#FF5A1A"/>
   <stop offset="1" style="stop-opacity:1; stop-color:#3D3D3D"/>
  </linearGradient>
  <linearGradient id="id2" gradientUnits="userSpaceOnUse" xlink:href="#id1" x1="4714.59" y1="4689.91" x2="5211.8" y2="5546.31">
  </linearGradient>
 </defs>
 <g id="Layer_x0020_1">
  <metadata id="CorelCorpID_0Corel-Layer"/>
  <g id="_510187520">
   <path class="fil0" d="M4963 6543c-183,0 -355,-34 -517,-104 -101,-43 -194,-96 -280,-161l488 -282c97,38 200,58 309,58 120,0 232,-23 334,-67 103,-45 195,-107 274,-188 78,-79 138,-171 181,-275 24,-62 42,-126 52,-191l490 -283c4,42 7,84 8,127l0 1101c0,69 -24,129 -73,178 -47,49 -106,74 -176,74 -70,0 -128,-25 -172,-73 -44,-47 -66,-108 -66,-179l-3 -39c-118,97 -249,173 -394,226 -145,51 -296,78 -455,78zm-1003 -604c-97,-109 -174,-233 -232,-371 -70,-164 -104,-338 -104,-523 0,-184 34,-357 104,-522 69,-164 165,-308 289,-434 124,-126 266,-223 429,-292 162,-70 334,-104 517,-104 182,0 354,34 516,102 161,68 304,165 427,288 122,124 218,267 287,429 15,37 30,75 42,114l-436 251c-11,-55 -26,-109 -47,-162 -43,-104 -103,-195 -181,-275 -79,-79 -171,-141 -275,-185 -104,-44 -215,-67 -333,-67 -118,0 -229,23 -332,67 -103,44 -194,106 -271,185 -78,80 -138,171 -181,275 -44,105 -66,214 -66,330 0,117 22,227 66,332 43,104 103,195 181,275 12,12 24,24 36,35l-436 252z"/>
   <g style="clip-path:url(#id0)">
    <g>
     <g>
      <polygon id="1" class="fil1" points="3867,6456 3959,6487 4051,6519 3941,6582 3831,6646 3849,6551 "/>
      <polygon class="fil1" points="4040,6754 4131,6786 4223,6818 4113,6881 4003,6944 4022,6849 "/>
      <polygon class="fil1" points="4212,7053 4304,7085 4395,7116 4285,7180 4176,7243 4194,7148 "/>
      <polygon class="fil1" points="5512,5506 5603,5538 5695,5570 5585,5633 5475,5696 5494,5601 "/>
      <polygon class="fil1" points="5684,5805 5776,5836 5867,5868 5758,5932 5648,5995 5666,5900 "/>
      <polygon class="fil1" points="5857,6103 5948,6135 6040,6167 5930,6230 5820,6294 5838,6199 "/>
      <polygon class="fil1" points="4491,6449 4509,6354 4527,6259 4418,6322 4308,6386 4399,6418 "/>
      <polygon class="fil1" points="4663,6748 4682,6653 4700,6558 4590,6621 4480,6685 4572,6717 "/>
      <polygon class="fil1" points="4835,7046 4853,6951 4872,6855 4762,6919 4652,6982 4744,7014 "/>
      <polygon class="fil1" points="5902,5635 5920,5540 5938,5444 5828,5508 5719,5571 5810,5603 "/>
      <polygon class="fil1" points="6107,5717 6125,5621 6143,5526 6033,5590 5924,5653 6015,5685 "/>
      <polygon class="fil1" points="6074,5934 6093,5839 6111,5743 6001,5807 5891,5870 5983,5902 "/>
      <polygon class="fil1" points="6246,6231 6264,6136 6283,6041 6173,6104 6063,6168 6154,6199 "/>
      <polygon class="fil1" points="4726,6313 4635,6282 4543,6250 4653,6186 4763,6123 4745,6218 "/>
      <polygon class="fil1" points="4899,6612 4807,6581 4716,6549 4826,6486 4936,6422 4917,6517 "/>
      <polygon class="fil1" points="5071,6910 4979,6878 4887,6846 4997,6783 5107,6720 5089,6815 "/>
      <polygon class="fil1" points="6137,5499 6046,5467 5954,5435 6064,5372 6174,5308 6155,5404 "/>
      <polygon class="fil1" points="6342,5581 6251,5549 6159,5517 6269,5454 6379,5390 6360,5486 "/>
      <polygon class="fil1" points="6310,5798 6218,5766 6127,5734 6237,5671 6346,5608 6328,5703 "/>
      <polygon class="fil1" points="6481,6095 6390,6064 6298,6032 6408,5968 6518,5905 6500,6000 "/>
      <polygon class="fil1" points="6275,6020 6183,5989 6092,5957 6202,5893 6311,5830 6293,5925 "/>
      <polygon class="fil1" points="4022,6722 4040,6627 4058,6532 3948,6596 3838,6659 3930,6691 "/>
      <polygon class="fil1" points="4194,7022 4213,6926 4231,6831 4121,6895 4011,6958 4103,6990 "/>
      <polygon class="fil1" points="4366,7319 4384,7224 4403,7129 4293,7192 4183,7256 4274,7287 "/>
      <polygon class="fil1" points="5432,5908 5451,5813 5469,5718 5359,5781 5249,5844 5341,5876 "/>
      <polygon class="fil1" points="5605,6207 5623,6112 5642,6017 5532,6080 5422,6144 5514,6175 "/>
      <polygon class="fil1" points="5777,6504 5795,6409 5813,6314 5704,6378 5594,6441 5685,6473 "/>
      <polygon class="fil1" points="5197,6044 5106,6012 5014,5980 5124,5917 5234,5853 5216,5948 "/>
      <polygon class="fil1" points="5370,6343 5279,6311 5187,6279 5297,6216 5407,6152 5388,6247 "/>
      <polygon class="fil1" points="5542,6640 5450,6608 5359,6577 5469,6513 5578,6450 5560,6545 "/>
      <polygon class="fil1" points="6608,5229 6517,5197 6425,5166 6535,5102 6645,5039 6627,5134 "/>
      <polygon class="fil1" points="6813,5311 6722,5279 6630,5247 6740,5184 6850,5121 6832,5216 "/>
      <polygon class="fil1" points="4308,6402 4399,6434 4491,6465 4381,6529 4271,6592 4289,6497 "/>
      <polygon class="fil1" points="4480,6701 4572,6733 4664,6764 4554,6828 4444,6891 4462,6796 "/>
      <polygon class="fil1" points="4652,6998 4744,7030 4835,7062 4725,7125 4616,7189 4634,7094 "/>
      <polygon class="fil1" points="5719,5587 5810,5619 5902,5651 5792,5714 5682,5778 5700,5683 "/>
      <polygon class="fil1" points="5891,5886 5983,5918 6074,5950 5965,6013 5855,6077 5873,5982 "/>
      <polygon class="fil1" points="6063,6184 6155,6216 6246,6247 6136,6311 6026,6374 6045,6279 "/>
      <polygon class="fil1" points="4542,6267 4633,6299 4725,6330 4615,6394 4505,6457 4524,6362 "/>
      <polygon class="fil1" points="4715,6566 4806,6598 4898,6629 4788,6693 4678,6756 4696,6661 "/>
      <polygon class="fil1" points="4886,6863 4978,6895 5069,6927 4960,6990 4850,7054 4868,6958 "/>
      <polygon class="fil1" points="5953,5452 6044,5484 6136,5516 6026,5579 5916,5643 5934,5547 "/>
      <polygon class="fil1" points="6158,5534 6249,5566 6341,5598 6231,5661 6121,5724 6139,5629 "/>
      <polygon class="fil1" points="6125,5751 6217,5783 6309,5815 6199,5878 6089,5942 6107,5846 "/>
      <polygon class="fil1" points="6297,6049 6389,6080 6480,6112 6370,6176 6261,6239 6279,6144 "/>
      <polygon class="fil1" points="4777,6131 4758,6226 4740,6322 4850,6258 4960,6195 4868,6163 "/>
      <polygon class="fil1" points="4949,6430 4931,6525 4913,6621 5023,6557 5133,6494 5041,6462 "/>
      <polygon class="fil1" points="5121,6728 5103,6823 5084,6918 5194,6855 5304,6791 5213,6759 "/>
      <polygon class="fil1" points="6188,5317 6169,5412 6151,5507 6261,5444 6371,5380 6279,5348 "/>
      <polygon class="fil1" points="6393,5399 6374,5494 6356,5589 6466,5525 6576,5462 6484,5430 "/>
      <polygon class="fil1" points="6360,5616 6342,5711 6324,5806 6434,5743 6543,5679 6452,5647 "/>
      <polygon class="fil1" points="6532,5913 6514,6008 6495,6103 6605,6040 6715,5977 6624,5945 "/>
      <polygon class="fil1" points="4054,6504 4072,6409 4090,6314 3981,6377 3871,6441 3962,6472 "/>
      <polygon class="fil1" points="4226,6803 4245,6707 4263,6612 4153,6676 4043,6739 4135,6771 "/>
      <polygon class="fil1" points="4399,7101 4417,7006 4435,6911 4325,6974 4215,7038 4307,7069 "/>
      <polygon class="fil1" points="5698,5555 5717,5459 5735,5364 5625,5428 5515,5491 5607,5523 "/>
      <polygon class="fil1" points="5871,5853 5889,5758 5907,5663 5797,5726 5688,5790 5779,5821 "/>
      <polygon class="fil1" points="6043,6152 6061,6057 6080,5961 5970,6025 5860,6088 5952,6120 "/>
      <polygon class="fil1" points="4288,6368 4307,6273 4325,6178 4215,6242 4105,6305 4197,6337 "/>
      <polygon class="fil1" points="4461,6667 4479,6572 4497,6477 4388,6540 4278,6604 4369,6635 "/>
      <polygon class="fil1" points="4633,6966 4652,6871 4670,6775 4560,6839 4450,6902 4542,6934 "/>
      <polygon class="fil1" points="5933,5419 5951,5324 5970,5229 5860,5292 5750,5356 5841,5387 "/>
      <polygon class="fil1" points="6552,5658 6570,5563 6588,5468 6478,5531 6369,5595 6460,5626 "/>
      <polygon class="fil1" points="4523,6233 4541,6138 4560,6043 4450,6106 4340,6170 4432,6201 "/>
      <polygon class="fil1" points="4696,6532 4714,6436 4732,6341 4622,6405 4512,6468 4604,6500 "/>
      <polygon class="fil1" points="4868,6830 4886,6735 4905,6640 4795,6703 4685,6767 4776,6798 "/>
      <polygon class="fil1" points="6168,5284 6186,5188 6204,5093 6094,5157 5984,5220 6076,5252 "/>
      <polygon class="fil1" points="6786,5523 6805,5428 6823,5332 6713,5396 6603,5459 6695,5491 "/>
      <polygon class="fil1" points="4758,6098 4776,6002 4794,5907 4685,5971 4575,6034 4666,6066 "/>
      <polygon class="fil1" points="4930,6396 4948,6301 4967,6206 4857,6269 4747,6333 4839,6364 "/>
      <polygon class="fil1" points="5103,6695 5121,6600 5139,6504 5029,6568 4919,6631 5011,6663 "/>
      <polygon class="fil1" points="6402,5148 6421,5053 6439,4958 6329,5021 6219,5085 6311,5116 "/>
      <polygon class="fil1" points="7021,5387 7039,5292 7058,5197 6948,5260 6838,5324 6929,5356 "/>
      <polygon class="fil1" points="4992,5962 5011,5867 5029,5772 4919,5835 4809,5899 4901,5930 "/>
      <polygon class="fil1" points="5165,6261 5183,6165 5201,6070 5092,6134 4982,6197 5073,6229 "/>
      <polygon class="fil1" points="5337,6559 5356,6464 5374,6369 5264,6432 5154,6496 5246,6528 "/>
      <polygon class="fil1" points="6637,5013 6655,4917 6674,4822 6564,4886 6454,4949 6545,4981 "/>
      <polygon class="fil1" points="7256,5252 7274,5157 7292,5061 7182,5125 7072,5188 7164,5220 "/>
      <polygon class="fil1" points="5227,5827 5245,5731 5264,5636 5154,5700 5044,5763 5136,5795 "/>
      <polygon class="fil1" points="5399,6125 5418,6030 5436,5935 5326,5998 5216,6062 5308,6093 "/>
      <polygon class="fil1" points="5572,6424 5590,6329 5608,6233 5499,6297 5389,6360 5480,6392 "/>
      <polygon class="fil1" points="5461,5691 5480,5596 5498,5501 5388,5565 5278,5628 5370,5660 "/>
      <polygon class="fil1" points="5634,5990 5652,5895 5670,5800 5560,5863 5451,5927 5542,5958 "/>
      <polygon class="fil1" points="5806,6289 5824,6193 5843,6098 5733,6162 5623,6225 5714,6257 "/>
      <polygon class="fil1" points="6872,4877 6890,4782 6908,4687 6798,4750 6688,4814 6780,4845 "/>
      <polygon class="fil1" points="7490,5116 7509,5021 7527,4926 7417,4989 7307,5053 7399,5085 "/>
      <polygon class="fil1" points="4073,6537 4165,6569 4256,6601 4146,6664 4037,6728 4055,6633 "/>
      <polygon class="fil1" points="4246,6837 4337,6868 4429,6900 4319,6963 4209,7027 4228,6932 "/>
      <polygon class="fil1" points="4418,7134 4509,7166 4601,7197 4491,7261 4381,7324 4399,7229 "/>
      <polygon class="fil1" points="5484,5723 5576,5755 5667,5786 5557,5850 5447,5913 5466,5818 "/>
      <polygon class="fil1" points="5657,6022 5748,6054 5840,6085 5730,6149 5620,6212 5638,6117 "/>
      <polygon class="fil1" points="5828,6319 5920,6351 6012,6383 5902,6446 5792,6510 5810,6414 "/>
      <polygon class="fil1" points="5011,5996 4993,6091 4975,6186 5085,6123 5195,6059 5103,6027 "/>
      <polygon class="fil1" points="5184,6295 5166,6390 5147,6485 5257,6422 5367,6358 5276,6327 "/>
      <polygon class="fil1" points="5356,6592 5337,6687 5319,6783 5429,6719 5539,6656 5447,6624 "/>
      <polygon class="fil1" points="5249,5859 5231,5954 5212,6049 5322,5986 5432,5922 5340,5890 "/>
      <polygon class="fil1" points="5422,6158 5403,6253 5385,6348 5495,6285 5605,6221 5513,6189 "/>
      <polygon class="fil1" points="5593,6455 5575,6550 5557,6645 5666,6582 5776,6519 5685,6487 "/>
      <polygon class="fil1" points="6422,5181 6404,5276 6386,5371 6496,5308 6605,5245 6514,5213 "/>
      <polygon class="fil1" points="6627,5263 6609,5358 6591,5453 6701,5390 6810,5327 6719,5295 "/>
      <polygon class="fil1" points="4101,6321 4192,6353 4284,6384 4174,6448 4064,6511 4083,6416 "/>
      <polygon class="fil1" points="4273,6619 4365,6651 4456,6683 4346,6746 4237,6810 4255,6715 "/>
      <polygon class="fil1" points="4446,6918 4537,6950 4629,6981 4519,7045 4409,7108 4427,7013 "/>
      <polygon class="fil1" points="5745,5371 5837,5403 5928,5435 5819,5498 5709,5562 5727,5467 "/>
      <polygon class="fil1" points="5918,5670 6009,5702 6101,5733 5991,5797 5881,5860 5899,5765 "/>
      <polygon class="fil1" points="6090,5969 6182,6000 6273,6032 6163,6095 6053,6159 6072,6064 "/>
      <polygon class="fil1" points="4338,6184 4429,6216 4521,6248 4411,6311 4301,6374 4319,6279 "/>
      <polygon class="fil1" points="4510,6483 4602,6514 4693,6546 4583,6610 4473,6673 4492,6578 "/>
      <polygon class="fil1" points="4682,6781 4774,6813 4866,6845 4756,6908 4646,6972 4664,6876 "/>
      <polygon class="fil1" points="5982,5235 6074,5266 6165,5298 6055,5362 5946,5425 5964,5330 "/>
      <polygon class="fil1" points="6602,5476 6694,5508 6785,5540 6675,5603 6566,5666 6584,5571 "/>
      <polygon class="fil1" points="4575,6047 4666,6079 4758,6111 4648,6174 4538,6238 4556,6143 "/>
      <polygon class="fil1" points="4747,6346 4838,6378 4930,6409 4820,6473 4710,6536 4729,6441 "/>
      <polygon class="fil1" points="4919,6645 5011,6676 5102,6708 4993,6771 4883,6835 4901,6740 "/>
      <polygon class="fil1" points="6219,5098 6311,5130 6402,5161 6292,5225 6182,5288 6201,5193 "/>
      <polygon class="fil1" points="6839,5339 6931,5371 7022,5403 6912,5466 6802,5530 6821,5434 "/>
      <polygon class="fil1" points="4808,5913 4900,5944 4991,5976 4881,6039 4771,6103 4790,6008 "/>
      <polygon class="fil1" points="4980,6211 5072,6243 5163,6275 5054,6338 4944,6401 4962,6306 "/>
      <polygon class="fil1" points="5153,6510 5244,6541 5336,6573 5226,6637 5116,6700 5134,6605 "/>
      <polygon class="fil1" points="6452,4963 6544,4995 6636,5027 6526,5090 6416,5153 6434,5058 "/>
      <polygon class="fil1" points="7072,5205 7164,5236 7256,5268 7146,5331 7036,5395 7054,5300 "/>
      <polygon class="fil1" points="5045,5776 5136,5808 5228,5839 5118,5903 5008,5966 5027,5871 "/>
      <polygon class="fil1" points="5217,6074 5309,6106 5400,6138 5290,6201 5181,6265 5199,6170 "/>
      <polygon class="fil1" points="5390,6373 5481,6405 5573,6436 5463,6500 5353,6563 5371,6468 "/>
      <polygon class="fil1" points="6689,4826 6781,4858 6872,4890 6763,4953 6653,5017 6671,4922 "/>
      <polygon class="fil1" points="7309,5068 7401,5100 7492,5131 7383,5195 7273,5258 7291,5163 "/>
      <polygon class="fil1" points="5278,5641 5370,5673 5461,5704 5352,5768 5242,5831 5260,5736 "/>
      <polygon class="fil1" points="5451,5940 5542,5971 5634,6003 5524,6067 5414,6130 5432,6035 "/>
      <polygon class="fil1" points="5623,6238 5715,6270 5806,6302 5696,6365 5586,6429 5605,6333 "/>
      <polygon class="fil1" points="6923,4692 7014,4723 7106,4755 6996,4818 6886,4882 6904,4787 "/>
      <polygon class="fil1" points="4254,6586 4272,6491 4291,6396 4181,6459 4071,6523 4162,6554 "/>
      <polygon class="fil1" points="4427,6885 4445,6790 4463,6695 4353,6758 4243,6822 4335,6853 "/>
      <polygon class="fil1" points="4598,7183 4617,7087 4635,6992 4525,7056 4415,7119 4507,7151 "/>
      <polygon class="fil1" points="5665,5771 5683,5676 5701,5581 5592,5645 5482,5708 5573,5740 "/>
      <polygon class="fil1" points="5837,6071 5856,5975 5874,5880 5764,5944 5654,6007 5746,6039 "/>
      <polygon class="fil1" points="6009,6368 6027,6273 6046,6178 5936,6241 5826,6305 5918,6336 "/>
      <polygon class="fil1" points="4963,6177 4872,6145 4780,6113 4890,6050 5000,5986 4981,6081 "/>
      <polygon class="fil1" points="5136,6476 5044,6444 4953,6412 5063,6349 5172,6285 5154,6381 "/>
      <polygon class="fil1" points="5307,6773 5216,6741 5124,6710 5234,6646 5344,6583 5326,6678 "/>
      <polygon class="fil1" points="6374,5362 6282,5330 6191,5299 6301,5235 6411,5172 6392,5267 "/>
      <polygon class="fil1" points="6579,5444 6487,5412 6396,5381 6506,5317 6616,5254 6597,5349 "/>
      <polygon class="fil1" points="5861,6496 5952,6527 6044,6559 5934,6622 5824,6686 5842,6591 "/>
      <polygon class="fil1" points="6279,6412 6187,6381 6096,6349 6206,6286 6315,6222 6297,6317 "/>
      <polygon class="fil1" points="6047,6544 6065,6449 6084,6354 5974,6417 5864,6481 5955,6512 "/>
      <polygon class="fil1" points="6094,6361 6186,6393 6277,6424 6167,6488 6057,6551 6076,6456 "/>
     </g>
    </g>
   </g>
   <path class="fil2" d="M4963 6543c-183,0 -355,-34 -517,-104 -101,-43 -194,-96 -280,-161l488 -282c97,38 200,58 309,58 120,0 232,-23 334,-67 103,-45 195,-107 274,-188 78,-79 138,-171 181,-275 24,-62 42,-126 52,-191l490 -283c4,42 7,84 8,127l0 1101c0,69 -24,129 -73,178 -47,49 -106,74 -176,74 -70,0 -128,-25 -172,-73 -44,-47 -66,-108 -66,-179l-3 -39c-118,97 -249,173 -394,226 -145,51 -296,78 -455,78zm-1003 -604c-97,-109 -174,-233 -232,-371 -70,-164 -104,-338 -104,-523 0,-184 34,-357 104,-522 69,-164 165,-308 289,-434 124,-126 266,-223 429,-292 162,-70 334,-104 517,-104 182,0 354,34 516,102 161,68 304,165 427,288 122,124 218,267 287,429 15,37 30,75 42,114l-436 251c-11,-55 -26,-109 -47,-162 -43,-104 -103,-195 -181,-275 -79,-79 -171,-141 -275,-185 -104,-44 -215,-67 -333,-67 -118,0 -229,23 -332,67 -103,44 -194,106 -271,185 -78,80 -138,171 -181,275 -44,105 -66,214 -66,330 0,117 22,227 66,332 43,104 103,195 181,275 12,12 24,24 36,35l-436 252z"/>
   <rect class="fil3" transform="matrix(0.917254 -0.529577 0.425067 0.736238 3695.43 6168.72)" width="3087" height="317" rx="158" ry="158"/>
   <path class="fil4" d="M5767 5336l-1099 634c96,38 163,50 272,50 120,0 231,-22 334,-67 103,-44 195,-106 274,-188 77,-79 138,-170 180,-274 25,-62 29,-89 39,-155z"/>
  </g>
 </g>
</svg>
