<svg id="Capa_1" fill="white" enable-background="new 0 0 512 512" height="512" viewBox="0 0 512 512" width="512" xmlns="http://www.w3.org/2000/svg"><g><path d="m255.175 170.75c8.749 4.714 14.776 6.191 22.385 6.597v4.627c0 4.142 3.358 7.5 7.5 7.5s7.5-3.358 7.5-7.5v-5.163c15.997-2.874 25.739-14.52 27.344-26.002 1.869-13.367-6.692-24.848-21.811-29.249-9.552-2.781-20.142-6.156-26.259-10.108-2.85-1.841-2.828-4.796-2.562-6.395.56-3.356 3.317-7.479 9.378-8.983 13.321-3.306 21.902 2.649 22.381 2.992 3.296 2.453 7.959 1.798 10.449-1.481 2.506-3.298 1.863-8.003-1.436-10.509-.392-.298-6.89-5.116-17.485-6.573v-4.01c0-4.142-3.358-7.5-7.5-7.5s-7.5 3.358-7.5 7.5v4.472c-.83.161-1.668.337-2.522.549-10.804 2.68-18.874 10.953-20.561 21.075-1.439 8.635 2.093 16.858 9.219 21.461 6.239 4.03 14.99 7.48 30.206 11.91 7.898 2.299 11.961 6.954 11.148 12.77-1.24 8.868-11.245 13.704-20.03 13.752-10.141.055-14.146-.315-22.729-4.939-3.645-1.965-8.194-.601-10.16 3.045-1.965 3.649-.601 8.198 3.045 10.162z"/><path d="m502.966 277.283c-9.722-12.37-25.152-17.96-39.905-15.626-13.449-15.034-35.885-18.549-53.353-7.99l-2.973 1.724c-13.603-12.316-34.126-14.611-50.244-4.884l-87.688 50.855-29.753-3.719 41.526-29.747c6.287-4.501 11.126-10.601 14.135-17.527 29.686-2.172 57.275-15.024 78.154-36.531 22.122-22.788 34.305-52.833 34.305-84.6 0-66.984-54.496-121.48-121.48-121.48-24.446 0-48.02 7.236-68.174 20.926-3.426 2.327-4.317 6.992-1.99 10.418 2.329 3.427 6.991 4.317 10.418 1.99 17.658-11.994 38.317-18.334 59.745-18.334 58.713 0 106.48 47.767 106.48 106.48 0 27.844-10.678 54.179-30.068 74.152-17.224 17.743-39.656 28.763-63.925 31.586.016-.476.043-.951.043-1.429 0-2.819-.286-5.658-.852-8.449-.861-4.219-2.309-8.159-4.242-11.751 43.105-3.78 77.033-40.05 77.033-84.114 0-46.577-37.893-84.47-84.47-84.47-46.571 0-84.46 37.893-84.46 84.47 0 25.688 11.847 49.765 31.308 65.601-8.515 1.734-16.936 3.9-25.229 6.476-18.151-19.705-28.099-45.122-28.099-72.073 0-25.637 9.239-50.407 26.016-69.745 2.714-3.129 2.378-7.866-.751-10.58-3.127-2.714-7.865-2.378-10.58.751-19.142 22.066-29.685 50.326-29.685 79.574 0 28.569 9.797 55.628 27.795 77.352-23.714 9.009-46.116 21.45-66.254 36.92l-51.476 39.539-70.812 45.267c-3.375 2.157-4.459 6.587-2.461 10.059l93.25 162.108c1.022 1.777 2.727 3.058 4.718 3.545.588.144 1.187.215 1.783.215 1.419 0 2.823-.403 4.04-1.181l69.661-44.528 218.388-27.806c13.764-1.755 26.467-8.394 35.768-18.694l72.489-80.289c7.032-7.786 10.904-17.853 10.904-28.347-.001-9.432-3.209-18.707-9.035-26.114zm-138.891-13.834c.042-.024.083-.049.124-.073 8.942-5.419 19.997-5.093 28.507.154l-75.634 43.868-23.673-2.959zm-147.845-134.215c0-38.306 31.16-69.47 69.46-69.47 38.306 0 69.47 31.164 69.47 69.47 0 38.3-31.164 69.46-69.47 69.46-2.01 0-4.048-.089-6.081-.266-7.208-4.854-15.924-7.466-25.086-7.121-23.32-11.725-38.293-35.882-38.293-62.073zm-112.897 356.956-85.762-149.092 58.417-37.34 85.765 149.089zm386.63-164.498-72.489 80.289c-6.899 7.64-16.322 12.565-26.531 13.867l-215.113 27.389-87.482-152.082 46.542-35.75c31.34-24.075 68.492-40.382 107.436-47.158l8.969-1.56c14.627-2.543 28.409 6.862 31.375 21.401.366 1.803.551 3.64.551 5.46 0 8.771-4.252 17.052-11.378 22.153l-57.11 40.91c-2.51 1.798-3.662 4.95-2.902 7.943s3.276 5.214 6.339 5.597l153.11 19.14c1.678.208 3.375-.154 4.819-1.029l30.21-18.32c3.542-2.148 4.671-6.76 2.524-10.302-2.148-3.541-6.759-4.672-10.302-2.524l-27.979 16.967-28.884-3.611 75.627-43.865c.043-.025.086-.051.128-.076 9.452-5.736 21.171-5.074 29.848 1.029l-23.112 14.015c-3.542 2.148-4.672 6.76-2.524 10.302s6.761 4.673 10.302 2.524l23.63-14.33c11.779-7.143 27.086-4.357 35.605 6.483 3.811 4.846 5.826 10.671 5.826 16.844.002 6.772-2.497 13.269-7.035 18.294z"/><path d="m116.353 418.748c-12.57 0-22.797 10.227-22.797 22.797s10.227 22.797 22.797 22.797 22.797-10.227 22.797-22.797-10.227-22.797-22.797-22.797zm0 30.594c-4.299 0-7.797-3.498-7.797-7.797s3.498-7.797 7.797-7.797 7.797 3.498 7.797 7.797-3.498 7.797-7.797 7.797z"/><path d="m101.517 151.612c.452 0 .905-.016 1.359-.047l20.254-1.389c10.476-.719 18.682-9.507 18.682-20.007v-1.871c0-10.5-8.206-19.289-18.682-20.007l-20.254-1.389c-5.53-.378-11.012 1.571-15.059 5.35s-6.368 9.121-6.368 14.658v4.65c0 5.537 2.321 10.879 6.368 14.658 3.715 3.466 8.645 5.394 13.7 5.394zm-5.067-24.704c0-1.416.57-2.728 1.605-3.694.947-.885 2.156-1.36 3.437-1.36.119 0 .238.004.357.012l20.254 1.389c2.64.181 4.708 2.396 4.708 5.042v1.871c0 2.646-2.068 4.861-4.708 5.042l-20.254 1.389c-1.411.099-2.76-.382-3.794-1.348-1.035-.966-1.605-2.278-1.605-3.694z"/><path d="m156.436 184.749c-5.249-9.094-16.752-12.601-26.183-7.986l-18.235 8.924c-4.973 2.434-8.751 6.867-10.367 12.162-1.615 5.296-.954 11.083 1.814 15.878l2.325 4.026c2.768 4.795 7.449 8.261 12.843 9.51 1.486.344 2.997.513 4.502.513 3.961 0 7.886-1.171 11.214-3.41l16.845-11.33c8.713-5.86 11.426-17.574 6.175-26.669zm-13.611 15.841-16.845 11.33c-1.175.791-2.581 1.05-3.961.73-1.379-.32-2.529-1.171-3.237-2.397l-2.325-4.026c-.708-1.226-.87-2.647-.457-4.002.413-1.354 1.341-2.443 2.613-3.065l18.234-8.924c.708-.347 1.463-.512 2.208-.512 1.756 0 3.462.915 4.391 2.524v.001l.936 1.619c1.323 2.293.639 5.245-1.557 6.722z"/><path d="m112.019 72.78 18.235 8.924c2.811 1.375 5.804 2.029 8.762 2.029 6.968 0 13.735-3.631 17.42-10.014l.936-1.621v-.001c5.25-9.093 2.537-20.807-6.175-26.667l-16.846-11.331c-4.595-3.09-10.323-4.146-15.717-2.896-5.394 1.249-10.075 4.715-12.843 9.51l-2.325 4.027c-2.768 4.795-3.43 10.582-1.814 15.877 1.615 5.296 5.394 9.729 10.367 12.163zm4.438-20.54 2.325-4.027c.708-1.226 1.857-2.077 3.237-2.397.385-.089.772-.133 1.156-.133.991 0 1.958.294 2.805.863l16.846 11.331c2.196 1.477 2.879 4.429 1.557 6.721l-.936 1.621c-1.322 2.292-4.221 3.177-6.599 2.012l-18.235-8.924c-1.272-.622-2.2-1.711-2.613-3.066-.413-1.354-.251-2.775.457-4.001z"/><path d="m468.506 106.901-20.253 1.389c-10.476.718-18.682 9.507-18.682 20.007v1.871c0 10.5 8.206 19.289 18.682 20.007l20.253 1.389c.454.031.906.047 1.359.047 5.056 0 9.986-1.928 13.7-5.396 4.047-3.779 6.368-9.121 6.368-14.658v-4.65c0-5.537-2.321-10.879-6.368-14.658-4.047-3.777-9.541-5.726-15.059-5.348zm6.427 20.007v4.65c0 1.416-.57 2.728-1.605 3.694-1.034.966-2.387 1.446-3.795 1.348l-20.253-1.389c-2.64-.181-4.708-2.396-4.708-5.042v-1.871c0-2.646 2.068-4.861 4.708-5.042l20.253-1.389c.12-.008.239-.012.357-.012 1.281 0 2.491.476 3.438 1.361 1.035.964 1.605 2.276 1.605 3.692z"/><path d="m420.186 213.037 16.845 11.33c3.329 2.239 7.253 3.41 11.214 3.41 1.505 0 3.017-.169 4.502-.513 5.394-1.249 10.075-4.716 12.843-9.51l2.325-4.027c2.769-4.795 3.43-10.582 1.814-15.878-1.615-5.296-5.394-9.729-10.367-12.162l-18.235-8.924c-9.431-4.616-20.932-1.108-26.183 7.986l-.935 1.62c-5.249 9.094-2.537 20.807 6.177 26.668zm6.815-19.168.936-1.621c1.323-2.291 4.222-3.176 6.599-2.012l18.235 8.924c1.271.622 2.199 1.711 2.612 3.065s.251 2.776-.457 4.002l-2.325 4.027c-.708 1.226-1.857 2.077-3.237 2.397-1.378.319-2.785.06-3.961-.73l-16.846-11.33c-2.196-1.478-2.88-4.43-1.556-6.722z"/><path d="m414.946 73.718c3.686 6.385 10.452 10.016 17.42 10.015 2.957 0 5.952-.654 8.762-2.029l18.235-8.924c4.973-2.434 8.751-6.867 10.367-12.162s.954-11.083-1.814-15.878l-2.325-4.027c-2.768-4.795-7.449-8.261-12.843-9.51-5.392-1.249-11.122-.194-15.716 2.896l-16.846 11.33c-8.713 5.86-11.425 17.573-6.176 26.667zm13.611-15.842 16.846-11.33c.847-.57 1.814-.863 2.805-.863.384 0 .771.044 1.156.133 1.379.319 2.529 1.171 3.237 2.397l2.325 4.027c.708 1.226.87 2.647.457 4.001s-1.341 2.443-2.613 3.065l-18.235 8.924c-2.378 1.163-5.275.279-6.598-2.012l-.936-1.621v-.001c-1.324-2.291-.64-5.243 1.556-6.72z"/></g></svg>